<mxfile host="app.diagrams.net" modified="2023-05-22T17:04:14.517Z" agent="Mozilla/5.0 (Macintosh; Intel Mac OS X 10.15; rv:109.0) Gecko/20100101 Firefox/113.0" version="21.3.2" etag="WOdboalnC2KTKoEE2aBS" type="github">
  <diagram name="Page-1" id="cTY5Y9TpxP5SZx-7HDxA">
    <mxGraphModel>
      <root>
        <mxCell id="0" />
        <mxCell id="1" parent="0" />
      </root>
    </mxGraphModel>
  </diagram>
</mxfile>
